<svg width="1742" height="496" viewBox="0 0 1742 496" fill="none" xmlns="http://www.w3.org/2000/svg">
<g clip-path="url(#clip0_312_2)">
<path d="M609.5 101.25C609.5 95.0833 611.5 90.3333 615.5 87C619.667 83.5 625.5 81.75 633 81.75V241.75C633 247.917 630.917 252.75 626.75 256.25C622.75 259.583 617 261.25 609.5 261.25V101.25ZM673.104 150.25C673.104 137.917 680.02 131.75 693.854 131.75V147.75C691.687 150.083 689.937 152.333 688.604 154.5L689.604 155.5C694.937 148 700.604 142.167 706.604 138C712.604 133.833 719.52 131.75 727.354 131.75C742.52 131.75 752.937 139 758.604 153.5C768.104 139 780.77 131.75 796.604 131.75C808.437 131.75 817.52 135.75 823.854 143.75C830.354 151.583 833.604 161.917 833.604 174.75V245.25C833.604 250.75 831.77 254.833 828.104 257.5C824.604 260 819.27 261.25 812.104 261.25V176C812.104 168 810.437 161.75 807.104 157.25C803.77 152.75 798.52 150.5 791.354 150.5C783.854 150.5 777.437 153.083 772.104 158.25C766.77 163.25 764.104 170 764.104 178.5V245.25C764.104 250.75 762.354 254.833 758.854 257.5C755.354 260 750.02 261.25 742.854 261.25V176C742.854 168 741.187 161.75 737.854 157.25C734.52 152.75 729.27 150.5 722.104 150.5C714.437 150.5 707.937 153.25 702.604 158.75C697.27 164.25 694.604 171 694.604 179V245.25C694.604 250.75 692.77 254.833 689.104 257.5C685.604 260 680.27 261.25 673.104 261.25V150.25ZM907.719 261.25C893.385 261.25 881.802 257.417 872.969 249.75C864.302 242.083 859.969 232 859.969 219.5C859.969 206.833 864.552 196.667 873.719 189C882.885 181.167 894.969 177.25 909.969 177.25C925.969 177.25 939.135 182.917 949.469 194.25L950.469 193.25C948.635 191.25 946.552 189.167 944.219 187V176.5C944.219 168 941.552 161.417 936.219 156.75C930.885 152.083 923.302 149.75 913.469 149.75C895.969 149.75 883.469 156.667 875.969 170.5C873.302 169.167 871.052 167.417 869.219 165.25C867.552 162.917 866.719 160.583 866.719 158.25C866.719 153.75 868.969 149.5 873.469 145.5C877.969 141.333 883.885 138 891.219 135.5C898.719 133 906.552 131.75 914.719 131.75C930.552 131.75 942.969 135.667 951.969 143.5C961.135 151.333 965.719 162.167 965.719 176V244.5C965.719 250.333 964.052 254.583 960.719 257.25C957.385 259.917 952.135 261.25 944.969 261.25V249.5C948.469 245.833 950.385 243.667 950.719 243L949.719 242C938.885 254.833 924.885 261.25 907.719 261.25ZM911.469 244C921.802 244 929.885 241.833 935.719 237.5C941.719 233.167 944.719 227.167 944.719 219.5C944.719 211.833 941.802 205.75 935.969 201.25C930.135 196.75 922.135 194.5 911.969 194.5C902.469 194.5 894.969 196.75 889.469 201.25C884.135 205.583 881.469 211.667 881.469 219.5C881.469 227.333 884.052 233.417 889.219 237.75C894.552 241.917 901.969 244 911.469 244ZM1049.27 311.25C1040.6 311.25 1032.52 309.833 1025.02 307C1017.52 304.167 1011.6 300.333 1007.27 295.5C1002.94 290.833 1000.77 285.75 1000.77 280.25C1000.77 275.917 1002.19 272.75 1005.02 270.75C1008.02 268.75 1012.02 267.75 1017.02 267.75C1017.35 275.583 1020.35 281.75 1026.02 286.25C1031.85 290.917 1039.6 293.25 1049.27 293.25C1070.6 293.25 1081.27 282.917 1081.27 262.25V247.75C1083.6 245.75 1085.35 243.917 1086.52 242.25L1085.77 241C1080.94 246.167 1074.85 250.417 1067.52 253.75C1060.35 257.083 1053.1 258.75 1045.77 258.75C1031.44 258.75 1019.69 254.833 1010.52 247C1001.52 239 997.02 228.5 997.02 215.5V175.25C997.02 166.75 999.103 159.25 1003.27 152.75C1007.6 146.083 1013.44 140.917 1020.77 137.25C1028.27 133.583 1036.52 131.75 1045.52 131.75C1061.85 131.75 1075.52 138.917 1086.52 153.25L1087.52 152.25L1082.52 146C1082.52 141.333 1084.1 137.833 1087.27 135.5C1090.6 133 1095.94 131.75 1103.27 131.75V260C1103.27 270 1100.94 278.833 1096.27 286.5C1091.77 294.333 1085.44 300.417 1077.27 304.75C1069.1 309.083 1059.77 311.25 1049.27 311.25ZM1049.77 239.75C1058.6 239.75 1066.1 237.417 1072.27 232.75C1078.44 227.917 1081.52 222.25 1081.52 215.75V175C1081.52 168.167 1078.44 162.417 1072.27 157.75C1066.27 153.083 1058.94 150.75 1050.27 150.75C1040.27 150.75 1032.52 153 1027.02 157.5C1021.52 161.833 1018.77 168.083 1018.77 176.25V214.5C1018.77 222.333 1021.44 228.5 1026.77 233C1032.27 237.5 1039.94 239.75 1049.77 239.75ZM1188.44 261.25C1178.27 261.25 1169.19 259.333 1161.19 255.5C1153.19 251.5 1146.94 246.083 1142.44 239.25C1137.94 232.25 1135.69 224.417 1135.69 215.75V178.75C1135.69 169.917 1138.02 161.917 1142.69 154.75C1147.52 147.583 1153.94 142 1161.94 138C1170.11 133.833 1178.94 131.75 1188.44 131.75C1197.94 131.75 1206.61 133.75 1214.44 137.75C1222.44 141.75 1228.69 147.25 1233.19 154.25C1237.86 161.25 1240.19 169.167 1240.19 178V194C1240.19 196.667 1239.19 198.917 1237.19 200.75C1235.19 202.583 1232.77 203.5 1229.94 203.5H1156.94V214.75C1156.94 223.25 1159.61 230.083 1164.94 235.25C1170.44 240.417 1178.27 243 1188.44 243C1198.61 243 1206.36 240.75 1211.69 236.25C1217.02 231.75 1219.69 225.667 1219.69 218C1224.69 217.667 1228.86 218.667 1232.19 221C1235.69 223.167 1237.44 226.417 1237.44 230.75C1237.44 236.083 1235.11 241.083 1230.44 245.75C1225.94 250.417 1219.94 254.167 1212.44 257C1204.94 259.833 1196.94 261.25 1188.44 261.25ZM1219.94 186.5V178C1219.94 169.667 1217.02 162.917 1211.19 157.75C1205.52 152.417 1197.94 149.75 1188.44 149.75C1178.94 149.75 1171.27 152.417 1165.44 157.75C1159.77 162.917 1156.94 169.667 1156.94 178V186.5H1219.94ZM1314.3 261.25C1305.8 261.25 1297.8 260 1290.3 257.5C1282.8 254.833 1276.72 251.083 1272.05 246.25C1267.55 241.417 1265.3 235.75 1265.3 229.25C1265.3 221.25 1270.13 216.917 1279.8 216.25C1281.47 225.583 1285.38 232.5 1291.55 237C1297.88 241.333 1305.88 243.5 1315.55 243.5C1325.22 243.5 1332.72 242.083 1338.05 239.25C1343.38 236.417 1346.05 232.083 1346.05 226.25C1346.05 222.083 1344.97 218.75 1342.8 216.25C1340.63 213.583 1337.13 211.333 1332.3 209.5C1327.63 207.5 1320.88 205.583 1312.05 203.75C1301.05 201.25 1292.3 198.583 1285.8 195.75C1279.3 192.917 1274.3 189.167 1270.8 184.5C1267.47 179.833 1265.8 173.667 1265.8 166C1265.8 159.5 1267.8 153.667 1271.8 148.5C1275.8 143.167 1281.3 139.083 1288.3 136.25C1295.47 133.25 1303.55 131.75 1312.55 131.75C1320.88 131.75 1328.72 132.917 1336.05 135.25C1343.55 137.583 1349.55 140.917 1354.05 145.25C1358.72 149.583 1361.05 154.583 1361.05 160.25C1361.05 164.083 1359.55 167.167 1356.55 169.5C1353.55 171.667 1349.38 172.917 1344.05 173.25C1343.55 165.917 1340.55 160.167 1335.05 156C1329.72 151.667 1322.22 149.5 1312.55 149.5C1304.55 149.5 1298.22 151 1293.55 154C1288.88 157 1286.55 161 1286.55 166C1286.55 171.333 1288.72 175.333 1293.05 178C1297.55 180.5 1305.13 182.917 1315.8 185.25C1333.3 188.75 1346.13 193.583 1354.3 199.75C1362.63 205.75 1366.8 214.333 1366.8 225.5C1366.8 236.833 1362.22 245.667 1353.05 252C1343.88 258.167 1330.97 261.25 1314.3 261.25Z" fill="#003849"/>
<path d="M1475.47 259C1470.14 259 1465.55 257.083 1461.72 253.25C1458.05 249.417 1456.22 244.833 1456.22 239.5V108.25C1456.22 99.25 1459.22 92.5833 1465.22 88.25C1471.22 83.9167 1480.47 81.75 1492.97 81.75V227.25H1557.47C1565.8 227.25 1572.14 230 1576.47 235.5C1580.97 240.833 1583.22 248.667 1583.22 259H1475.47ZM1647.96 261.25C1637.63 261.25 1628.04 259.167 1619.21 255C1610.54 250.833 1603.63 245.167 1598.46 238C1593.29 230.833 1590.71 222.833 1590.71 214V182C1590.71 172.667 1593.29 164.167 1598.46 156.5C1603.79 148.667 1610.88 142.583 1619.71 138.25C1628.54 133.917 1638.04 131.75 1648.21 131.75C1658.21 131.75 1667.38 133.833 1675.71 138C1684.21 142 1690.88 147.75 1695.71 155.25C1700.54 162.583 1702.96 170.917 1702.96 180.25V193.75C1702.96 197.75 1701.46 201.167 1698.46 204C1695.46 206.667 1691.63 208 1686.96 208H1623.96V211.5C1623.96 218.167 1625.96 223.667 1629.96 228C1634.13 232.167 1640.21 234.25 1648.21 234.25C1656.04 234.25 1661.79 232.583 1665.46 229.25C1669.13 225.75 1670.96 221.417 1670.96 216.25C1674.29 215.917 1676.79 215.75 1678.46 215.75C1685.29 215.75 1690.54 217.167 1694.21 220C1697.88 222.833 1699.71 227 1699.71 232.5C1699.71 237 1697.46 241.5 1692.96 246C1688.46 250.5 1682.21 254.167 1674.21 257C1666.38 259.833 1657.63 261.25 1647.96 261.25ZM1671.96 183.75V180.25C1671.96 173.583 1669.71 168.333 1665.21 164.5C1660.88 160.5 1655.13 158.5 1647.96 158.5C1640.79 158.5 1634.96 160.5 1630.46 164.5C1626.13 168.333 1623.96 173.583 1623.96 180.25V183.75H1671.96Z" fill="#ED5B2D"/>
<path fill-rule="evenodd" clip-rule="evenodd" d="M344.748 173.795L335.206 231.278C338.408 230.36 341.643 228.937 344.811 227.849C353.248 224.925 364.111 220.409 372.861 217.122C379.054 214.793 385.48 212.323 391.606 209.931C394.128 208.951 409.337 203.318 410.312 202.667C409.388 200.519 400.814 192.013 398.814 190.534C397.726 189.735 396.729 188.789 395.533 187.979C394.332 187.163 393.266 186.386 391.94 185.491C385.067 180.782 375.15 176.759 366.656 175.036C360.677 173.823 350.908 172.764 344.748 173.795ZM284.654 215.026C285.577 216.193 295.845 224.534 297.953 226.45C303.303 231.317 311.389 237.517 316.914 242.549C319.957 245.314 324.519 248.844 327.811 251.717C327.97 251.474 327.862 251.757 328.021 251.236L340.748 174.22C323.487 176.657 311.083 184.035 300.061 194.053C297.908 196.02 296.367 198.009 294.219 200.36C293.358 201.307 292.281 202.678 291.556 203.772C289.431 206.934 288.887 207.483 286.779 211.144C286.099 212.311 285.385 213.972 284.671 215.037L284.654 215.026ZM358.943 226.552C359.516 226.971 360.009 227.521 360.643 228.002C361.335 228.541 361.816 228.966 362.593 229.555C363.307 230.105 363.839 230.405 364.616 231.051L372.339 237.126C373.031 237.647 373.586 238.197 374.255 238.701C375.66 239.783 376.606 240.605 378.04 241.699L408.889 265.986C410.21 266.944 411.558 268.06 412.856 269.04L420.466 275.03C422.444 271.137 424.359 262.83 425 257.832C427.04 242.112 424.337 226.563 416.953 212.816C415.593 210.294 414.165 208.22 412.856 205.942L358.943 226.552ZM361.516 321.321C366.701 321.281 376.935 317.717 381.179 315.875C387.435 313.155 395.714 308.027 400.31 303.698C401.534 302.542 402.492 301.765 403.591 300.677C404.73 299.544 405.461 298.626 406.674 297.447C407.643 296.501 408.527 295.181 409.411 294.098C411.921 291.033 417.933 282.397 418.914 278.589L375.02 244.186C374.255 245.728 373.603 251.695 373.212 253.888L364.871 302.105C363.771 308.401 362.848 315.184 361.527 321.321H361.516ZM367.177 265.861L292.632 293.118C294.91 296.172 298.22 299.924 301.081 302.349C302.05 303.159 303.104 304.389 304.164 305.103C306.21 306.508 308.221 308.39 311.038 310.146C319.073 315.195 326.179 318.272 335.994 320.471C340.459 321.463 353.197 322.93 357.6 321.718L367.188 265.861H367.177ZM283.033 218.856C282.036 220.483 280.63 225.067 280.013 227.266C274.618 246.068 276.896 265.776 285.963 282.867L290.111 289.831C292.865 289.1 300.345 286.108 303.762 284.918C308.284 283.343 312.636 281.677 317.124 280.056C321.572 278.453 326.032 276.838 330.469 275.177C331.681 274.73 342.856 271.018 343.757 270.106L283.033 218.856Z" fill="#003849"/>
<path fill-rule="evenodd" clip-rule="evenodd" d="M108.936 162.224H56.236C49.436 162.224 43.8713 167.794 43.8713 174.6C43.8713 181.4 49.436 186.97 56.236 186.97H108.936C115.736 186.97 121.301 181.4 121.301 174.6C121.301 167.794 115.736 162.224 108.936 162.224Z" fill="#003849"/>
<path fill-rule="evenodd" clip-rule="evenodd" d="M356.377 337.499C354.716 337.596 353.039 337.635 351.356 337.635C351.197 337.635 351.027 337.635 350.869 337.635C350.716 337.635 350.557 337.635 350.387 337.635C301.059 337.635 261.052 297.606 261.052 248.249C261.052 198.893 301.059 158.863 350.387 158.863C350.546 158.863 350.699 158.863 350.869 158.863C351.027 158.863 351.186 158.863 351.356 158.863C353.039 158.863 354.716 158.914 356.377 158.999C403.376 161.606 440.691 200.564 440.691 248.249C440.691 295.917 403.376 334.893 356.377 337.499ZM425.862 112.119H353.164C352.399 112.079 351.645 112.068 350.886 112.068C350.121 112.057 349.367 112.068 348.602 112.119H220.734C213.934 112.119 208.369 117.684 208.369 124.489C208.369 131.295 213.934 136.86 220.734 136.86H271.416C271.524 136.86 271.626 136.871 271.734 136.871H271.745C271.949 136.888 272.159 136.899 272.363 136.922H272.374C272.47 136.933 272.584 136.945 272.68 136.956C272.98 136.996 273.286 137.041 273.587 137.103H273.598L273.893 137.166L274.182 137.239L274.471 137.324L274.754 137.409H274.777L275.054 137.494H275.077L275.258 137.551C275.491 137.636 275.723 137.721 275.95 137.817C280.375 139.71 283.492 144.113 283.492 149.207C283.492 156.013 277.927 161.583 271.127 161.583H159.307C152.507 161.583 146.942 167.148 146.942 173.954C146.942 180.759 152.507 186.324 159.307 186.324H207.423L207.649 186.341H207.746L207.967 186.352H208.04L208.318 186.375H208.341L208.607 186.398L208.692 186.409L208.902 186.437L209.242 186.483H209.264L209.542 186.534L209.616 186.545L209.82 186.596L209.905 186.619L210.126 186.664L210.171 186.681L210.437 186.749L210.5 186.766L210.704 186.823L210.789 186.851L210.976 186.908L211.061 186.936L211.31 187.015L211.338 187.032L211.565 187.117L211.639 187.14L211.831 187.214L211.905 187.248L212.149 187.355H212.16L212.404 187.48L212.477 187.514L212.659 187.599L212.732 187.639L212.925 187.746L212.959 187.769L213.203 187.905L213.254 187.928L213.435 188.035L213.509 188.075L213.69 188.183L213.735 188.217L213.968 188.364L214.002 188.387L214.183 188.523L214.257 188.568L214.415 188.693L214.478 188.738L214.693 188.908L214.903 189.078L214.959 189.129L215.118 189.259L215.18 189.31L215.362 189.469L215.384 189.492L215.577 189.673L215.979 190.075L216.03 190.121L216.212 190.319L216.246 190.353L216.393 190.512L216.455 190.574L216.586 190.733L216.62 190.778L216.79 190.999L216.807 191.01L216.96 191.203L217.011 191.277L217.118 191.424L217.169 191.492L217.311 191.702L217.328 191.724L217.481 191.957L217.521 192.002L217.628 192.183L217.662 192.257L217.776 192.45L217.798 192.489L217.934 192.733L217.968 192.79L218.065 192.977L218.099 193.045L218.201 193.226L218.223 193.288L218.342 193.532L218.354 193.566L218.45 193.787L218.49 193.861L218.563 194.053L218.586 194.127L218.597 194.172C218.694 194.405 218.767 194.648 218.852 194.892C219.226 196.076 219.436 197.329 219.436 198.638C219.436 205.443 213.871 211.014 207.071 211.014H89.9753C83.1753 211.014 77.6106 216.578 77.6106 223.384C77.6106 230.19 83.1753 235.754 89.9753 235.754H180.931L180.92 235.794C181.237 235.817 181.537 235.851 181.843 235.89C187.793 236.774 192.389 241.942 192.389 248.13C192.389 254.313 187.793 259.481 181.843 260.365C181.537 260.416 181.237 260.45 180.92 260.467L180.931 260.501H115.362C108.556 260.501 102.997 266.071 102.997 272.871C102.997 279.677 108.556 285.247 115.362 285.247H207.071C213.871 285.247 219.436 290.812 219.436 297.617C219.436 298.926 219.226 300.179 218.852 301.369C218.779 301.607 218.694 301.839 218.597 302.083L218.586 302.117L218.563 302.19L218.49 302.372L218.45 302.457L218.371 302.666L218.354 302.7L218.246 302.944L218.212 303.018L218.127 303.199L218.087 303.284L218.002 303.454L217.968 303.528L217.832 303.754L217.81 303.805L217.702 303.987L217.651 304.06L217.543 304.23L217.509 304.287L217.362 304.519L217.339 304.559L217.203 304.752L217.141 304.825L217.033 304.967L216.988 305.041L216.841 305.233L216.818 305.262L216.648 305.466L216.597 305.517L216.467 305.67L216.404 305.732L216.268 305.891L216.223 305.942L216.042 306.134L215.991 306.18L215.849 306.327L215.787 306.389L215.639 306.531L215.594 306.582L215.396 306.763L215.362 306.786L215.192 306.933L215.129 306.996L214.988 307.115L214.914 307.177L214.721 307.336L214.704 307.347L214.5 307.506L214.438 307.551L214.285 307.676L214.211 307.721L214.03 307.857L213.99 307.88L213.764 308.027L213.713 308.061L213.531 308.169L213.458 308.208L213.276 308.316L213.225 308.339L212.948 308.497L212.755 308.605L212.681 308.645L212.5 308.73L212.426 308.764L212.183 308.888L212.171 308.9L211.933 309.007L211.86 309.047L211.661 309.115L211.593 309.143L211.361 309.228L211.338 309.24L211.083 309.325L210.998 309.347L210.817 309.41L210.732 309.432L210.522 309.495L210.466 309.506L210.199 309.58L210.148 309.591L209.933 309.636L209.848 309.665L209.797 309.676C209.117 309.823 208.454 309.92 207.797 309.954H207.723L207.564 309.965H159.381C152.575 309.965 147.01 315.535 147.01 322.341C147.01 329.141 152.575 334.711 159.381 334.711H271.201C278.001 334.711 283.566 340.276 283.566 347.082C283.566 352.176 280.449 356.579 276.023 358.472C275.797 358.568 275.564 358.67 275.332 358.738L276.046 359.458H220.819C214.019 359.458 208.454 365.022 208.454 371.828C208.454 378.634 214.019 384.198 220.819 384.198H348.698H348.642C349.418 384.238 350.194 384.261 350.971 384.249C351.741 384.261 352.518 384.249 353.294 384.198H353.237H445.366C486.608 384.198 520.348 350.442 520.348 309.177V186.919C520.348 145.654 486.608 111.898 445.366 111.898H425.935L425.862 112.119Z" fill="#ED5B2D"/>
<path fill-rule="evenodd" clip-rule="evenodd" d="M79.781 260.563H53.4254C46.6254 260.563 41.0607 266.128 41.0607 272.933C41.0607 279.739 46.6254 285.304 53.4254 285.304H79.781C86.581 285.304 92.1457 279.739 92.1457 272.933C92.1457 266.128 86.581 260.563 79.781 260.563Z" fill="#003849"/>
<path fill-rule="evenodd" clip-rule="evenodd" d="M181.815 359.361H83.9971C77.1971 359.361 71.6324 364.926 71.6324 371.732C71.6324 378.537 77.1971 384.102 83.9971 384.102H181.815C188.621 384.102 194.185 378.537 194.185 371.732C194.185 364.926 188.621 359.361 181.815 359.361Z" fill="#003849"/>
<path fill-rule="evenodd" clip-rule="evenodd" d="M179.004 111.949H164.407C157.607 111.949 152.042 117.514 152.042 124.319C152.042 131.125 157.607 136.69 164.407 136.69H179.004C185.804 136.69 191.369 131.125 191.369 124.319C191.369 117.514 185.804 111.949 179.004 111.949Z" fill="#003849"/>
<path fill-rule="evenodd" clip-rule="evenodd" d="M109.882 310.243H95.285C88.485 310.243 82.9203 315.813 82.9203 322.619C82.9203 329.424 88.485 334.989 95.285 334.989H109.882C116.682 334.989 122.247 329.424 122.247 322.619C122.247 315.813 116.682 310.243 109.882 310.243Z" fill="#003849"/>
<path fill-rule="evenodd" clip-rule="evenodd" d="M51.1076 211.218H36.5103C29.7103 211.218 24.1456 216.782 24.1456 223.588C24.1456 230.394 29.7103 235.964 36.5103 235.964H51.1076C57.9076 235.964 63.4723 230.394 63.4723 223.588C63.4723 216.782 57.9076 211.218 51.1076 211.218Z" fill="#003849"/>
<path d="M613.48 346.96C616.28 347.2 618.72 347.96 620.8 349.24C622.88 350.44 623.92 352.28 623.92 354.76C623.92 356.6 623.04 358.08 621.28 359.2C619.6 360.24 617.56 360.76 615.16 360.76C612.84 360.76 611.24 360.16 610.36 358.96C609.48 357.76 609.04 356.52 609.04 355.24C609.04 352.84 609.28 350.84 609.76 349.24C610.32 347.64 611.56 346.88 613.48 346.96ZM623.08 400.12V403.6C623.08 406.72 623.16 409.68 623.32 412.48C623.56 415.2 623.84 417.96 624.16 420.76C624.08 421.56 623.48 422.4 622.36 423.28C621.24 424.08 620.24 424.48 619.36 424.48C617.84 424.48 616.28 424.2 614.68 423.64C613.16 423 612.24 422.24 611.92 421.36C611.44 418.8 611.2 416.52 611.2 414.52C611.2 407.96 611 400.6 610.6 392.44C610.28 385.24 610.12 380.2 610.12 377.32C610.12 375.88 610.84 374.64 612.28 373.6C613.72 372.56 615.24 372.04 616.84 372.04C619.16 372.04 620.76 372.56 621.64 373.6C622.6 374.64 623.08 376.28 623.08 378.52V400.12ZM713.783 419.8C712.583 417.56 711.823 415.08 711.503 412.36C711.183 409.56 711.023 405.72 711.023 400.84C711.023 396.2 710.383 392.16 709.103 388.72C707.823 385.28 705.183 383.56 701.183 383.56C699.663 383.56 698.143 384.04 696.623 385C695.183 385.88 694.103 387 693.383 388.36C692.263 390.52 691.503 392.88 691.103 395.44C690.703 397.92 690.503 400.8 690.503 404.08C690.503 406.16 690.623 408.28 690.863 410.44C690.863 411.08 690.903 412.12 690.983 413.56C691.143 414.92 691.223 416.16 691.223 417.28C691.223 422.08 689.543 424.48 686.183 424.48C681.783 424.48 679.463 422.16 679.223 417.52C679.223 414.24 679.263 412.48 679.343 412.24V407.08C679.343 404.2 679.223 401.4 678.983 398.68C678.743 395.96 678.463 393.92 678.143 392.56C677.423 389.92 676.463 387.88 675.263 386.44C674.143 385 672.343 384.28 669.863 384.28C666.343 384.28 663.503 385.8 661.343 388.84C659.823 391.24 658.823 394.16 658.343 397.6C657.863 402 657.503 405.48 657.263 408.04C657.103 410.52 657.023 413.4 657.023 416.68C657.023 419 656.623 420.88 655.823 422.32C655.103 423.76 653.703 424.48 651.623 424.48C650.103 424.48 648.503 424.08 646.823 423.28C645.223 422.4 644.423 421.24 644.423 419.8C644.423 418.28 644.583 416.76 644.903 415.24C645.623 410.68 645.983 402.52 645.983 390.76C645.983 388.84 645.503 387 644.543 385.24C643.663 383.4 642.583 382.48 641.303 382.48C640.983 382.48 640.383 382.64 639.503 382.96C638.703 383.28 638.103 383.44 637.703 383.44C636.663 383.44 635.703 382.96 634.823 382C634.023 381.04 633.623 380.24 633.623 379.6C633.623 377.6 634.583 375.92 636.503 374.56C638.503 373.12 640.583 372.4 642.743 372.4C645.703 372.4 648.223 373.32 650.303 375.16C652.383 377 653.983 379.56 655.103 382.84C656.943 379.64 659.423 377.08 662.543 375.16C665.663 373.16 669.143 372.16 672.983 372.16C675.383 372.16 677.303 372.48 678.743 373.12C680.263 373.68 681.503 374.52 682.463 375.64C683.423 376.68 684.663 378.28 686.183 380.44C688.183 377.88 690.743 375.88 693.863 374.44C697.063 373 700.343 372.28 703.703 372.28C707.703 372.28 711.303 373.92 714.503 377.2C717.703 380.4 719.863 384.12 720.983 388.36C721.543 390.52 721.823 394.68 721.823 400.84L722.303 407.8C722.703 411.96 724.063 414.48 726.383 415.36C729.103 416.16 730.463 417 730.463 417.88C730.463 419.8 729.983 421.2 729.023 422.08C728.303 422.56 727.303 423.08 726.023 423.64C724.743 424.2 723.743 424.48 723.023 424.48C718.703 424.48 715.623 422.92 713.783 419.8ZM784.562 424.48C781.842 424.48 779.762 424.08 778.322 423.28C776.882 422.4 775.322 420.8 773.642 418.48C771.562 420.32 768.442 421.8 764.282 422.92C760.202 424.04 756.682 424.6 753.722 424.6C748.842 424.6 744.882 423.28 741.842 420.64C738.882 417.92 737.402 413.96 737.402 408.76C737.402 406.52 738.002 404.48 739.202 402.64C740.482 400.72 742.122 399.04 744.122 397.6C746.362 396.08 749.002 394.88 752.042 394C755.162 393.12 758.002 392.68 760.562 392.68C764.882 392.68 768.722 393.08 772.082 393.88V393.76C772.082 389.44 771.002 386.48 768.842 384.88C766.762 383.2 763.402 382.36 758.762 382.36C755.802 382.36 753.242 383.68 751.082 386.32C750.282 387.36 748.602 387.88 746.042 387.88C744.762 387.88 743.802 387.36 743.162 386.32C742.602 385.2 742.322 384.08 742.322 382.96C742.322 380.64 743.282 378.64 745.202 376.96C747.202 375.28 749.602 374.04 752.402 373.24C755.202 372.36 757.802 371.92 760.202 371.92C762.522 371.92 765.282 372.4 768.482 373.36C771.682 374.32 774.282 375.6 776.282 377.2C778.682 379.28 780.522 381.72 781.802 384.52C783.162 387.24 783.842 390.24 783.842 393.52C783.842 394.56 783.762 396.12 783.602 398.2C783.442 400.6 783.362 402.56 783.362 404.08C783.362 404.8 783.282 405.72 783.122 406.84C782.962 408.28 782.882 409.48 782.882 410.44C782.882 411.48 783.202 412.48 783.842 413.44C784.482 414.4 785.362 415.2 786.482 415.84C787.522 416.4 788.202 417 788.522 417.64C788.842 418.28 789.002 419 789.002 419.8C789.002 420.6 788.482 421.6 787.442 422.8C786.482 423.92 785.522 424.48 784.562 424.48ZM760.562 401.56C757.442 401.56 754.682 402.16 752.282 403.36C749.882 404.56 748.682 406.68 748.682 409.72C748.682 411.24 749.202 412.52 750.242 413.56C751.362 414.6 752.562 415.12 753.842 415.12C757.282 415.12 760.162 414.76 762.482 414.04C764.802 413.32 767.602 412 770.882 410.08C771.282 408.8 771.522 407 771.602 404.68C771.602 403.8 771.642 403.12 771.722 402.64C767.402 401.92 763.682 401.56 760.562 401.56ZM844.104 393.88C844.104 397.56 843.184 400.68 841.344 403.24C839.504 405.72 837.064 407.92 834.024 409.84C829.864 412.08 825.024 413.24 819.504 413.32C819.184 414.28 819.024 415.28 819.024 416.32C819.024 417.28 819.544 418 820.584 418.48C821.704 418.88 823.664 419.2 826.464 419.44C828.784 419.6 831.384 420.12 834.264 421C837.224 421.8 839.544 422.72 841.224 423.76C843.304 425.28 844.744 426.92 845.544 428.68C846.424 430.44 846.864 432.64 846.864 435.28C846.864 438.72 845.264 441.6 842.064 443.92C838.944 446.32 835.264 448.08 831.024 449.2C826.784 450.32 823.064 450.88 819.864 450.88C816.024 450.88 812.744 450.4 810.024 449.44C807.384 448.56 804.864 447.32 802.464 445.72C800.784 444.52 799.464 443 798.504 441.16C797.544 439.32 797.064 437.4 797.064 435.4C797.064 433.4 797.704 431.48 798.984 429.64C800.344 427.8 801.984 426.2 803.904 424.84C805.824 423.56 807.624 422.68 809.304 422.2C808.664 421.4 808.184 420.72 807.864 420.16C807.624 419.52 807.504 418.8 807.504 418C807.504 415.28 808.184 413 809.544 411.16C805.704 409.88 802.664 407.6 800.424 404.32C798.264 401.04 797.184 397.2 797.184 392.8C797.184 389.92 797.864 387.32 799.224 385C800.584 382.6 802.464 380.32 804.864 378.16C808.944 374.48 814.584 372.64 821.784 372.64C822.744 372.64 824.064 372.8 825.744 373.12C827.424 373.44 829.064 373.88 830.664 374.44C833.224 373.32 836.224 372.16 839.664 370.96C843.104 369.76 845.424 369.16 846.624 369.16C848.464 369.16 849.824 369.48 850.704 370.12C851.664 370.68 852.144 371.96 852.144 373.96C852.144 375.8 851.064 377.12 848.904 377.92C846.824 378.72 843.664 379.48 839.424 380.2C842.544 383.96 844.104 388.52 844.104 393.88ZM819.144 403.48C823.784 403.48 827.144 402.52 829.224 400.6C831.384 398.68 832.464 395.8 832.464 391.96C832.464 385.64 828.744 382.48 821.304 382.48C818.424 382.48 816.144 382.8 814.464 383.44C812.864 384.08 811.544 385.16 810.504 386.68C809.064 388.6 808.344 391.2 808.344 394.48C808.344 397.04 809.384 399.2 811.464 400.96C813.624 402.64 816.184 403.48 819.144 403.48ZM808.344 436.24C808.344 437.6 809.584 438.76 812.064 439.72C814.624 440.76 817.344 441.28 820.224 441.28C823.424 441.28 826.704 440.68 830.064 439.48C833.504 438.36 835.224 436.84 835.224 434.92C835.224 432.12 832.744 430.32 827.784 429.52C826.024 429.2 823.464 428.6 820.104 427.72C819.704 427.64 819.224 427.52 818.664 427.36C818.184 427.2 817.664 427.04 817.104 426.88C815.344 427.52 813.424 428.84 811.344 430.84C809.344 432.92 808.344 434.72 808.344 436.24ZM858.002 396.88C858.002 394 858.522 391.32 859.562 388.84C860.602 386.28 862.122 383.64 864.122 380.92C866.122 378.2 868.882 376.08 872.402 374.56C875.922 372.96 879.762 372.16 883.922 372.16C887.122 372.16 890.202 372.84 893.162 374.2C896.202 375.48 898.922 377.08 901.322 379C901.642 379.56 902.202 380.6 903.002 382.12C903.802 383.56 904.362 384.88 904.682 386.08C905.082 387.28 905.282 388.52 905.282 389.8C905.282 395.16 903.322 398.76 899.402 400.6C895.482 402.36 890.522 403.24 884.522 403.24C878.522 403.24 873.642 402.84 869.882 402.04C870.042 403.56 870.442 405.08 871.082 406.6C871.722 408.12 872.482 409.28 873.362 410.08C874.962 411.6 876.522 412.6 878.042 413.08C879.642 413.48 881.762 413.68 884.402 413.68C888.402 413.68 891.522 412.92 893.762 411.4C895.842 410.04 897.442 409.36 898.562 409.36C900.082 409.36 901.242 409.84 902.042 410.8C902.842 411.68 903.242 412.84 903.242 414.28C903.242 417.32 901.282 419.8 897.362 421.72C893.522 423.64 889.162 424.6 884.282 424.6C880.442 424.6 876.642 423.92 872.882 422.56C869.122 421.2 866.122 419.28 863.882 416.8C862.362 414.24 861.002 411.12 859.802 407.44C858.602 403.76 858.002 400.24 858.002 396.88ZM884.402 382C882.642 382 880.802 382.32 878.882 382.96C877.042 383.52 875.602 384.4 874.562 385.6C873.282 386.96 872.322 388.2 871.682 389.32C871.122 390.44 870.762 391.84 870.602 393.52C871.482 393.52 872.322 393.56 873.122 393.64C873.922 393.72 874.682 393.8 875.402 393.88C878.922 394.2 881.562 394.36 883.322 394.36C886.842 394.36 889.522 393.84 891.362 392.8C893.282 391.76 894.242 390.36 894.242 388.6C894.242 386.92 893.162 385.4 891.002 384.04C888.922 382.68 886.722 382 884.402 382ZM950.932 396.52C954.132 398.36 956.372 400.2 957.652 402.04C958.932 403.8 959.572 406.12 959.572 409C959.572 411.88 958.732 414.44 957.052 416.68C955.372 418.84 953.212 420.52 950.572 421.72C948.652 422.6 946.252 423.28 943.372 423.76C940.572 424.24 938.372 424.48 936.772 424.48C933.972 424.48 930.932 423.96 927.652 422.92C924.372 421.88 921.572 420.4 919.252 418.48C917.012 416.56 915.892 414.32 915.892 411.76C915.892 410.16 916.412 408.92 917.452 408.04C918.492 407.08 919.852 406.6 921.532 406.6C922.892 406.6 924.332 407.56 925.852 409.48C927.372 411.16 929.132 412.44 931.132 413.32C933.212 414.2 935.252 414.64 937.252 414.64C944.852 414.64 948.652 412.92 948.652 409.48C948.652 408.76 948.412 408.08 947.932 407.44C947.452 406.72 947.012 406.24 946.612 406C945.892 405.44 944.892 404.96 943.612 404.56C942.332 404.16 941.052 403.84 939.772 403.6C938.492 403.28 937.532 403.04 936.892 402.88C936.252 402.72 934.892 402.44 932.812 402.04C930.812 401.64 928.892 400.96 927.052 400C924.012 398.56 921.532 396.8 919.612 394.72C917.772 392.64 916.852 389.96 916.852 386.68C916.852 384.84 917.292 383 918.172 381.16C919.132 379.24 920.412 377.8 922.012 376.84C924.412 375.32 927.052 374.16 929.932 373.36C932.812 372.56 935.492 372.16 937.972 372.16C939.972 372.16 942.212 372.36 944.692 372.76C947.252 373.16 949.092 373.72 950.212 374.44C952.292 375.56 953.812 376.72 954.772 377.92C955.732 379.12 956.212 380.64 956.212 382.48C956.212 383.36 956.012 384.24 955.612 385.12C955.212 385.92 954.732 386.48 954.172 386.8C952.892 387.28 951.772 387.52 950.812 387.52C950.092 387.52 949.492 387.4 949.012 387.16C948.532 386.84 948.092 386.52 947.692 386.2C947.372 385.88 947.172 385.68 947.092 385.6C946.052 384.48 944.892 383.6 943.612 382.96C942.332 382.32 940.452 382 937.972 382C936.372 382 934.812 382.24 933.292 382.72C931.852 383.12 930.732 383.64 929.932 384.28C929.292 384.76 928.852 385.2 928.612 385.6C928.372 385.92 928.252 386.36 928.252 386.92C928.252 389.16 930.492 390.8 934.972 391.84C939.532 392.88 941.932 393.44 942.172 393.52C942.652 393.68 943.972 394.08 946.132 394.72C948.372 395.36 949.972 395.96 950.932 396.52ZM1078.73 417.4C1078.73 419.4 1077.93 421.28 1076.33 423.04C1074.73 424.72 1072.97 425.56 1071.05 425.56C1068.81 425.56 1066.77 424.96 1064.93 423.76C1063.09 422.48 1062.17 420.88 1062.17 418.96C1062.17 415.92 1062.73 413.68 1063.85 412.24C1065.05 410.8 1066.81 410.08 1069.13 410.08C1071.85 410.08 1074.13 410.76 1075.97 412.12C1077.81 413.4 1078.73 415.16 1078.73 417.4ZM1134.18 383.92C1134.18 387.44 1132.38 389.2 1128.78 389.2C1127.58 389.2 1126.58 388.92 1125.78 388.36C1124.98 387.8 1124.1 386.96 1123.14 385.84C1120.74 383.2 1118.66 381.88 1116.9 381.88C1114.58 381.88 1112.3 382.56 1110.06 383.92C1107.9 385.28 1106.14 387.2 1104.78 389.68C1103.42 392.16 1102.74 394.92 1102.74 397.96C1102.74 401.32 1103.38 404.12 1104.66 406.36C1106.02 408.6 1108.1 410.52 1110.9 412.12C1111.94 412.68 1113.14 413.12 1114.5 413.44C1115.94 413.76 1117.18 413.92 1118.22 413.92C1120.54 413.92 1123.46 413 1126.98 411.16C1128.26 410.52 1129.34 410.04 1130.22 409.72C1131.1 409.4 1132.02 409.24 1132.98 409.24C1133.86 409.24 1134.86 409.64 1135.98 410.44C1137.1 411.24 1137.66 412.24 1137.66 413.44C1137.66 415.84 1136.54 417.88 1134.3 419.56C1132.06 421.16 1129.3 422.4 1126.02 423.28C1122.82 424.08 1119.74 424.48 1116.78 424.48C1112.06 424.48 1107.66 423.4 1103.58 421.24C1099.58 419.08 1096.38 416.12 1093.98 412.36C1091.58 408.52 1090.38 404.2 1090.38 399.4C1090.38 394.28 1091.54 389.6 1093.86 385.36C1096.18 381.12 1099.3 377.8 1103.22 375.4C1107.14 373 1111.42 371.8 1116.06 371.8C1118.7 371.8 1121.42 372.28 1124.22 373.24C1127.02 374.2 1129.38 375.6 1131.3 377.44C1133.22 379.28 1134.18 381.44 1134.18 383.92ZM1195.35 385.48C1195.99 386.6 1196.51 388.24 1196.91 390.4C1197.31 392.48 1197.51 394.36 1197.51 396.04C1197.51 399.16 1196.83 403.6 1195.47 409.36C1189.95 419.44 1181.79 424.48 1170.99 424.48C1166.99 424.48 1162.91 423.16 1158.75 420.52C1154.59 417.88 1151.71 414.84 1150.11 411.4C1147.95 404.52 1146.87 400.16 1146.87 398.32C1146.87 395.12 1147.55 391.72 1148.91 388.12C1150.35 384.52 1152.15 381.4 1154.31 378.76C1155.67 376.92 1158.11 375.36 1161.63 374.08C1165.15 372.72 1168.35 372.04 1171.23 372.04C1176.83 372.04 1181.59 373.12 1185.51 375.28C1189.43 377.36 1192.71 380.76 1195.35 385.48ZM1184.91 404.8C1185.31 403.76 1185.51 401.08 1185.51 396.76C1185.51 394.44 1185.07 392.16 1184.19 389.92C1183.39 387.68 1182.19 385.76 1180.59 384.16C1180.43 384 1179.99 383.76 1179.27 383.44C1178.55 383.04 1177.55 382.68 1176.27 382.36C1175.07 381.96 1173.67 381.76 1172.07 381.76C1167.59 381.76 1164.31 383.56 1162.23 387.16C1160.15 390.76 1159.11 394.84 1159.11 399.4C1159.11 400.2 1159.31 401.72 1159.71 403.96C1160.19 406.2 1160.59 407.6 1160.91 408.16C1161.15 408.72 1161.75 409.52 1162.71 410.56C1163.75 411.52 1164.99 412.4 1166.43 413.2C1167.95 413.92 1169.51 414.28 1171.11 414.28C1174.71 414.28 1177.59 413.44 1179.75 411.76C1181.91 410 1183.63 407.68 1184.91 404.8ZM1209.12 382.72C1207.12 381.04 1206.12 379.08 1206.12 376.84C1206.12 375.72 1206.68 374.72 1207.8 373.84C1208.92 372.88 1210.28 372.4 1211.88 372.4C1214.76 372.4 1217.12 373.16 1218.96 374.68C1220.8 376.2 1222.4 378.4 1223.76 381.28C1225.44 378.16 1227.56 375.88 1230.12 374.44C1232.76 372.92 1236.08 372.16 1240.08 372.16C1242.48 372.16 1244.4 372.48 1245.84 373.12C1247.36 373.68 1248.6 374.52 1249.56 375.64C1250.52 376.68 1251.72 378.28 1253.16 380.44C1255.24 377.88 1257.84 375.88 1260.96 374.44C1264.16 373 1267.44 372.28 1270.8 372.28C1274.72 372.28 1278.28 373.92 1281.48 377.2C1284.76 380.48 1286.96 384.2 1288.08 388.36C1288.48 390.12 1288.76 394.28 1288.92 400.84L1289.4 407.8C1289.8 412.04 1291.16 414.56 1293.48 415.36C1294.6 415.68 1295.52 416.08 1296.24 416.56C1297.04 416.96 1297.44 417.4 1297.44 417.88C1297.6 419.8 1297.16 421.2 1296.12 422.08C1295.4 422.56 1294.4 423.08 1293.12 423.64C1291.84 424.2 1290.84 424.48 1290.12 424.48C1285.8 424.48 1282.72 422.92 1280.88 419.8C1279.68 417.72 1278.92 415.36 1278.6 412.72C1278.28 410 1278.12 406.32 1278.12 401.68C1278.12 396.72 1277.52 392.48 1276.32 388.96C1275.12 385.36 1272.4 383.56 1268.16 383.56C1266.64 383.56 1265.12 384.04 1263.6 385C1262.16 385.88 1261.12 387 1260.48 388.36C1259.36 390.52 1258.6 392.88 1258.2 395.44C1257.8 397.92 1257.6 400.8 1257.6 404.08C1257.6 406.16 1257.72 408.28 1257.96 410.44C1257.96 411.08 1258 412.12 1258.08 413.56C1258.24 414.92 1258.32 416.16 1258.32 417.28C1258.32 419.28 1257.92 421 1257.12 422.44C1256.4 423.8 1255.12 424.48 1253.28 424.48C1248.88 424.48 1246.56 422.16 1246.32 417.52C1246.32 414.24 1246.36 412.48 1246.44 412.24V407.08C1246.44 404.2 1246.32 401.4 1246.08 398.68C1245.84 395.96 1245.56 393.92 1245.24 392.56C1244.52 389.92 1243.56 387.88 1242.36 386.44C1241.16 385 1239.32 384.28 1236.84 384.28C1235.16 384.28 1233.6 384.68 1232.16 385.48C1230.72 386.28 1229.48 387.4 1228.44 388.84C1226.92 391.24 1225.92 394.16 1225.44 397.6C1224.96 402 1224.6 405.48 1224.36 408.04C1224.2 410.52 1224.12 413.4 1224.12 416.68C1224.12 419 1223.72 420.88 1222.92 422.32C1222.2 423.76 1220.8 424.48 1218.71 424.48C1217.2 424.48 1215.6 424.08 1213.92 423.28C1212.32 422.4 1211.52 421.24 1211.52 419.8C1211.52 418.28 1211.68 416.76 1212 415.24C1212.72 410.68 1213.08 402.92 1213.08 391.96C1213.08 390.2 1212.68 388.48 1211.88 386.8C1211.16 385.04 1210.24 383.68 1209.12 382.72Z" fill="#003849"/>
<path d="M984.316 405.4C984.316 408.44 984.756 410.8 985.636 412.48C986.596 414.08 987.796 414.88 989.236 414.88C990.036 414.88 990.796 414.84 991.516 414.76C992.236 414.6 992.956 414.52 993.676 414.52C994.476 414.52 995.156 414.92 995.716 415.72C996.356 416.52 996.676 417.4 996.676 418.36C996.676 420.28 995.756 421.8 993.916 422.92C992.156 423.96 989.756 424.48 986.716 424.48C984.556 424.48 982.356 423.84 980.116 422.56C977.956 421.2 976.156 419.12 974.716 416.32C973.276 413.44 972.556 409.88 972.556 405.64C972.556 396.52 972.716 388.8 973.036 382.48C973.436 374.96 973.636 365.48 973.636 354.04C973.636 350.44 973.836 347.92 974.236 346.48C974.716 345.36 975.476 344.52 976.516 343.96C977.636 343.32 978.796 343 979.996 343C981.196 343 982.236 343.2 983.116 343.6C984.076 344 984.716 344.64 985.036 345.52C985.356 346.48 985.556 347.44 985.636 348.4C985.796 349.28 985.876 350.56 985.876 352.24C985.876 355.52 985.756 358.68 985.516 361.72C985.356 365.4 985.276 368.08 985.276 369.76C984.636 383.84 984.316 395.72 984.316 405.4ZM1003.9 398.56C1003.9 395.52 1004.46 392.48 1005.58 389.44C1006.7 386.32 1008.18 383.48 1010.02 380.92C1011.86 378.36 1014.78 376.28 1018.78 374.68C1022.78 373 1026.34 372.16 1029.46 372.16C1032.66 372.16 1035.9 372.6 1039.18 373.48C1042.54 374.36 1044.86 375.72 1046.14 377.56C1049.1 381.72 1050.58 385.8 1050.58 389.8C1050.58 391.96 1050.1 393.8 1049.14 395.32C1048.26 396.84 1046.98 398.48 1045.3 400.24C1043.94 401.68 1041.78 402.64 1038.82 403.12C1035.94 403.6 1033.06 403.84 1030.18 403.84C1028.34 403.84 1026.1 403.68 1023.46 403.36C1020.82 402.96 1018.26 402.48 1015.78 401.92C1015.94 403.52 1016.34 405.08 1016.98 406.6C1017.62 408.12 1018.38 409.28 1019.26 410.08C1020.86 411.6 1022.5 412.56 1024.18 412.96C1025.94 413.36 1028.18 413.56 1030.9 413.56C1033.78 413.56 1036.46 413.08 1038.94 412.12C1040.94 411.4 1042.58 411.04 1043.86 411.04C1045.38 411.04 1046.54 411.52 1047.34 412.48C1048.14 413.36 1048.54 414.52 1048.54 415.96C1048.54 417.96 1047.38 419.6 1045.06 420.88C1042.74 422.16 1040.06 423.12 1037.02 423.76C1034.06 424.32 1031.66 424.6 1029.82 424.6C1026.06 424.6 1022.42 423.92 1018.9 422.56C1015.38 421.2 1012.46 419.28 1010.14 416.8C1008.22 414.56 1006.7 411.88 1005.58 408.76C1004.46 405.56 1003.9 402.16 1003.9 398.56ZM1030.06 382.36C1028.3 382.36 1026.54 382.72 1024.78 383.44C1023.02 384.08 1021.58 385 1020.46 386.2C1019.02 387.72 1018.02 388.96 1017.46 389.92C1016.98 390.8 1016.66 392.04 1016.5 393.64C1018.5 394.28 1022.66 394.6 1028.98 394.6C1032.42 394.6 1035.06 394.08 1036.9 393.04C1038.82 392 1039.78 390.64 1039.78 388.96C1039.78 387.28 1038.74 385.76 1036.66 384.4C1034.58 383.04 1032.38 382.36 1030.06 382.36Z" fill="#ED5B2D"/>
</g>
<defs>
<clipPath id="clip0_312_2">
<rect width="1742" height="496" fill="white"/>
</clipPath>
</defs>
</svg>
