<svg width="2099" height="496" viewBox="0 0 2099 496" fill="none" xmlns="http://www.w3.org/2000/svg">
<path d="M568.88 145.508C568.88 137.319 571.536 131.011 576.848 126.584C582.381 121.936 590.128 119.612 600.088 119.612V332.092C600.088 340.281 597.321 346.7 591.788 351.348C586.476 355.775 578.84 357.988 568.88 357.988V145.508ZM653.345 210.58C653.345 194.201 662.531 186.012 680.901 186.012V207.26C678.024 210.359 675.7 213.347 673.929 216.224L675.257 217.552C682.34 207.592 689.865 199.845 697.833 194.312C705.801 188.779 714.987 186.012 725.389 186.012C745.531 186.012 759.364 195.64 766.889 214.896C779.505 195.64 796.327 186.012 817.353 186.012C833.068 186.012 845.131 191.324 853.541 201.948C862.173 212.351 866.489 226.073 866.489 243.116V336.74C866.489 344.044 864.055 349.467 859.185 353.008C854.537 356.328 847.455 357.988 837.937 357.988V244.776C837.937 234.152 835.724 225.852 831.297 219.876C826.871 213.9 819.899 210.912 810.381 210.912C800.421 210.912 791.9 214.343 784.817 221.204C777.735 227.844 774.193 236.808 774.193 248.096V336.74C774.193 344.044 771.869 349.467 767.221 353.008C762.573 356.328 755.491 357.988 745.973 357.988V244.776C745.973 234.152 743.76 225.852 739.333 219.876C734.907 213.9 727.935 210.912 718.417 210.912C708.236 210.912 699.604 214.564 692.521 221.868C685.439 229.172 681.897 238.136 681.897 248.76V336.74C681.897 344.044 679.463 349.467 674.593 353.008C669.945 356.328 662.863 357.988 653.345 357.988V210.58ZM964.915 357.988C945.88 357.988 930.497 352.897 918.767 342.716C907.257 332.535 901.503 319.144 901.503 302.544C901.503 285.723 907.589 272.221 919.763 262.04C931.936 251.637 947.983 246.436 967.903 246.436C989.151 246.436 1006.64 253.961 1020.36 269.012L1021.69 267.684C1019.25 265.028 1016.49 262.261 1013.39 259.384V245.44C1013.39 234.152 1009.85 225.409 1002.76 219.212C995.68 213.015 985.609 209.916 972.551 209.916C949.311 209.916 932.711 219.101 922.751 237.472C919.209 235.701 916.221 233.377 913.787 230.5C911.573 227.401 910.467 224.303 910.467 221.204C910.467 215.228 913.455 209.584 919.431 204.272C925.407 198.739 933.264 194.312 943.003 190.992C952.963 187.672 963.365 186.012 974.21 186.012C995.237 186.012 1011.73 191.213 1023.68 201.616C1035.85 212.019 1041.94 226.405 1041.94 244.776V335.744C1041.94 343.491 1039.73 349.135 1035.3 352.676C1030.87 356.217 1023.9 357.988 1014.38 357.988V342.384C1019.03 337.515 1021.58 334.637 1022.02 333.752L1020.69 332.424C1006.3 349.467 987.712 357.988 964.915 357.988ZM969.895 335.08C983.617 335.08 994.352 332.203 1002.1 326.448C1010.07 320.693 1014.05 312.725 1014.05 302.544C1014.05 292.363 1010.18 284.284 1002.43 278.308C994.684 272.332 984.06 269.344 970.559 269.344C957.943 269.344 947.983 272.332 940.679 278.308C933.596 284.063 930.055 292.141 930.055 302.544C930.055 312.947 933.485 321.025 940.347 326.78C947.429 332.313 957.279 335.08 969.895 335.08ZM1152.89 424.388C1141.38 424.388 1130.65 422.507 1120.69 418.744C1110.73 414.981 1102.87 409.891 1097.12 403.472C1091.36 397.275 1088.49 390.524 1088.49 383.22C1088.49 377.465 1090.37 373.26 1094.13 370.604C1098.11 367.948 1103.43 366.62 1110.07 366.62C1110.51 377.023 1114.49 385.212 1122.02 391.188C1129.76 397.385 1140.06 400.484 1152.89 400.484C1181.22 400.484 1195.39 386.761 1195.39 359.316V340.06C1198.49 337.404 1200.81 334.969 1202.36 332.756L1201.37 331.096C1194.95 337.957 1186.87 343.601 1177.13 348.028C1167.61 352.455 1157.98 354.668 1148.25 354.668C1129.21 354.668 1113.61 349.467 1101.43 339.064C1089.48 328.44 1083.51 314.496 1083.51 297.232V243.78C1083.51 232.492 1086.27 222.532 1091.81 213.9C1097.56 205.047 1105.31 198.185 1115.05 193.316C1125.01 188.447 1135.96 186.012 1147.91 186.012C1169.6 186.012 1187.75 195.529 1202.36 214.564L1203.69 213.236L1197.05 204.936C1197.05 198.739 1199.15 194.091 1203.36 190.992C1207.78 187.672 1214.87 186.012 1224.61 186.012V356.328C1224.61 369.608 1221.51 381.339 1215.31 391.52C1209.33 401.923 1200.92 410.001 1190.08 415.756C1179.23 421.511 1166.84 424.388 1152.89 424.388ZM1153.56 329.436C1165.29 329.436 1175.25 326.337 1183.44 320.14C1191.63 313.721 1195.72 306.196 1195.72 297.564V243.448C1195.72 234.373 1191.63 226.737 1183.44 220.54C1175.47 214.343 1165.73 211.244 1154.22 211.244C1140.94 211.244 1130.65 214.232 1123.35 220.208C1116.04 225.963 1112.39 234.263 1112.39 245.108V295.904C1112.39 306.307 1115.93 314.496 1123.01 320.472C1130.32 326.448 1140.5 329.436 1153.56 329.436ZM1337.71 357.988C1324.21 357.988 1312.15 355.443 1301.53 350.352C1290.9 345.04 1282.6 337.847 1276.63 328.772C1270.65 319.476 1267.66 309.073 1267.66 297.564V248.428C1267.66 236.697 1270.76 226.073 1276.96 216.556C1283.38 207.039 1291.9 199.624 1302.52 194.312C1313.37 188.779 1325.1 186.012 1337.71 186.012C1350.33 186.012 1361.84 188.668 1372.24 193.98C1382.87 199.292 1391.17 206.596 1397.14 215.892C1403.34 225.188 1406.44 235.701 1406.44 247.432V268.68C1406.44 272.221 1405.11 275.209 1402.45 277.644C1399.8 280.079 1396.59 281.296 1392.83 281.296H1295.88V296.236C1295.88 307.524 1299.42 316.599 1306.51 323.46C1313.81 330.321 1324.21 333.752 1337.71 333.752C1351.22 333.752 1361.51 330.764 1368.59 324.788C1375.67 318.812 1379.21 310.733 1379.21 300.552C1385.85 300.109 1391.39 301.437 1395.81 304.536C1400.46 307.413 1402.79 311.729 1402.79 317.484C1402.79 324.567 1399.69 331.207 1393.49 337.404C1387.51 343.601 1379.55 348.581 1369.59 352.344C1359.63 356.107 1349 357.988 1337.71 357.988ZM1379.55 258.72V247.432C1379.55 236.365 1375.67 227.401 1367.93 220.54C1360.4 213.457 1350.33 209.916 1337.71 209.916C1325.1 209.916 1314.92 213.457 1307.17 220.54C1299.64 227.401 1295.88 236.365 1295.88 247.432V258.72H1379.55ZM1504.86 357.988C1493.57 357.988 1482.94 356.328 1472.98 353.008C1463.02 349.467 1454.94 344.487 1448.75 338.068C1442.77 331.649 1439.78 324.124 1439.78 315.492C1439.78 304.868 1446.2 299.113 1459.04 298.228C1461.25 310.623 1466.45 319.808 1474.64 325.784C1483.05 331.539 1493.68 334.416 1506.52 334.416C1519.35 334.416 1529.31 332.535 1536.4 328.772C1543.48 325.009 1547.02 319.255 1547.02 311.508C1547.02 305.975 1545.58 301.548 1542.7 298.228C1539.83 294.687 1535.18 291.699 1528.76 289.264C1522.56 286.608 1513.6 284.063 1501.87 281.628C1487.26 278.308 1475.64 274.767 1467.01 271.004C1458.38 267.241 1451.74 262.261 1447.09 256.064C1442.66 249.867 1440.45 241.677 1440.45 231.496C1440.45 222.864 1443.1 215.117 1448.42 208.256C1453.73 201.173 1461.03 195.751 1470.33 191.988C1479.84 188.004 1490.58 186.012 1502.53 186.012C1513.6 186.012 1524 187.561 1533.74 190.66C1543.7 193.759 1551.67 198.185 1557.64 203.94C1563.84 209.695 1566.94 216.335 1566.94 223.86C1566.94 228.951 1564.95 233.045 1560.96 236.144C1556.98 239.021 1551.45 240.681 1544.36 241.124C1543.7 231.385 1539.72 223.749 1532.41 218.216C1525.33 212.461 1515.37 209.584 1502.53 209.584C1491.91 209.584 1483.5 211.576 1477.3 215.56C1471.1 219.544 1468 224.856 1468 231.496C1468 238.579 1470.88 243.891 1476.64 247.432C1482.61 250.752 1492.68 253.961 1506.85 257.06C1530.09 261.708 1547.13 268.127 1557.98 276.316C1569.04 284.284 1574.58 295.683 1574.58 310.512C1574.58 325.563 1568.49 337.293 1556.32 345.704C1544.14 353.893 1526.99 357.988 1504.86 357.988ZM1718.89 355C1711.8 355 1705.72 352.455 1700.63 347.364C1695.76 342.273 1693.32 336.187 1693.32 329.104V154.804C1693.32 142.852 1697.31 133.999 1705.27 128.244C1713.24 122.489 1725.53 119.612 1742.13 119.612V312.836H1827.78C1838.85 312.836 1847.26 316.488 1853.01 323.792C1858.99 330.875 1861.98 341.277 1861.98 355H1718.89ZM1947.96 357.988C1934.23 357.988 1921.51 355.221 1909.78 349.688C1898.27 344.155 1889.08 336.629 1882.22 327.112C1875.36 317.595 1871.93 306.971 1871.93 295.24V252.744C1871.93 240.349 1875.36 229.061 1882.22 218.88C1889.3 208.477 1898.71 200.399 1910.44 194.644C1922.17 188.889 1934.79 186.012 1948.29 186.012C1961.57 186.012 1973.74 188.779 1984.81 194.312C1996.1 199.624 2004.95 207.26 2011.37 217.22C2017.79 226.959 2021 238.025 2021 250.42V268.348C2021 273.66 2019 278.197 2015.02 281.96C2011.04 285.501 2005.95 287.272 1999.75 287.272H1916.08V291.92C1916.08 300.773 1918.74 308.077 1924.05 313.832C1929.59 319.365 1937.66 322.132 1948.29 322.132C1958.69 322.132 1966.33 319.919 1971.2 315.492C1976.07 310.844 1978.5 305.089 1978.5 298.228C1982.93 297.785 1986.25 297.564 1988.46 297.564C1997.53 297.564 2004.51 299.445 2009.38 303.208C2014.25 306.971 2016.68 312.504 2016.68 319.808C2016.68 325.784 2013.69 331.76 2007.72 337.736C2001.74 343.712 1993.44 348.581 1982.82 352.344C1972.41 356.107 1960.79 357.988 1947.96 357.988ZM1979.83 255.068V250.42C1979.83 241.567 1976.84 234.595 1970.86 229.504C1965.11 224.192 1957.47 221.536 1947.96 221.536C1938.44 221.536 1930.69 224.192 1924.72 229.504C1918.96 234.595 1916.08 241.567 1916.08 250.42V255.068H1979.83Z" fill="#003849"/>
<path d="M179.777 262.974V151.402H344.383V262.974H179.777Z" fill="#F0675D"/>
<path d="M347.267 148.52H176.892V265.858H347.267V148.52ZM341.498 154.285V260.094H182.664V154.285H341.498Z" fill="white"/>
<path d="M264.197 151.26V59.002H399.805V151.26H264.197Z" fill="#EAC99C"/>
<path d="M402.692 56.1173H261.315V154.142H402.692V56.1173ZM396.922 61.8843V148.375H267.084V61.8843H396.922Z" fill="white"/>
<path d="M136.282 441.577V362.583H251.982V441.577H136.282Z" fill="#F0EFF5"/>
<path d="M254.867 359.701H133.397V444.462H254.867V359.701ZM249.095 365.466V438.695H139.166V365.466H249.095Z" fill="white"/>
<path d="M324.402 355.666V263.409H460.01V355.666H324.402Z" fill="#8EA9D2"/>
<path d="M462.896 260.524H321.517V358.546H462.896V260.524ZM457.125 266.291V352.782H327.289V266.291H457.125Z" fill="white"/>
<path d="M179.993 361.431V263.119H324.689V361.431H179.993Z" fill="#EAC99C"/>
<path d="M327.576 260.236H177.108V364.311H327.576V260.236ZM321.805 266.003V358.546H182.88V266.003H321.805Z" fill="white"/>
<path d="M81.1008 362.367V217.783H179.489V362.367H81.1008Z" fill="#8EA9D2"/>
<path d="M182.374 214.901H78.2163V365.25H182.374V214.901ZM176.604 220.668V359.483H83.9879V220.668H176.604Z" fill="white"/>
<path d="M344.599 263.264V151.26H421.251V263.264H344.599Z" fill="#F0EFF5"/>
<path d="M424.136 148.375H341.712V266.148H424.136V148.375ZM418.366 154.142V260.381H347.483V154.142H418.366Z" fill="white"/>
<path d="M102.812 217.712V105.706H179.466V217.712H102.812Z" fill="#EFEEF4"/>
<path d="M182.351 102.824H99.9292V220.594H182.351V102.824ZM176.579 108.588V214.83H105.698V108.588H176.579Z" fill="white"/>
<path d="M251.982 468.678V362.583H324.689V468.678H251.982Z" fill="#F0675D"/>
<path d="M327.576 359.701H249.095V471.562H327.576V359.701ZM321.805 365.466V465.795H254.867V365.466H321.805Z" fill="white"/>
<path d="M180.908 151.115V28.1543H264.869V151.115H180.908Z" fill="#8EA9D2"/>
<path d="M267.753 25.2697H178.021V153.997H267.753V25.2697ZM261.984 31.0366V148.23H183.793V31.0366H261.984Z" fill="white"/>
</svg>
