<svg width="2099" height="496" viewBox="0 0 2099 496" fill="none" xmlns="http://www.w3.org/2000/svg">
<g clip-path="url(#clip0_305_2)">
<path d="M568.88 145.508C568.88 137.319 571.536 131.011 576.848 126.584C582.381 121.936 590.128 119.612 600.088 119.612V332.092C600.088 340.281 597.321 346.7 591.788 351.348C586.476 355.775 578.84 357.988 568.88 357.988V145.508ZM653.345 210.58C653.345 194.201 662.531 186.012 680.901 186.012V207.26C678.024 210.359 675.7 213.347 673.929 216.224L675.257 217.552C682.34 207.592 689.865 199.845 697.833 194.312C705.801 188.779 714.987 186.012 725.389 186.012C745.531 186.012 759.364 195.64 766.889 214.896C779.505 195.64 796.327 186.012 817.353 186.012C833.068 186.012 845.131 191.324 853.541 201.948C862.173 212.351 866.489 226.073 866.489 243.116V336.74C866.489 344.044 864.055 349.467 859.185 353.008C854.537 356.328 847.455 357.988 837.937 357.988V244.776C837.937 234.152 835.724 225.852 831.297 219.876C826.871 213.9 819.899 210.912 810.381 210.912C800.421 210.912 791.9 214.343 784.817 221.204C777.735 227.844 774.193 236.808 774.193 248.096V336.74C774.193 344.044 771.869 349.467 767.221 353.008C762.573 356.328 755.491 357.988 745.973 357.988V244.776C745.973 234.152 743.76 225.852 739.333 219.876C734.907 213.9 727.935 210.912 718.417 210.912C708.236 210.912 699.604 214.564 692.521 221.868C685.439 229.172 681.897 238.136 681.897 248.76V336.74C681.897 344.044 679.463 349.467 674.593 353.008C669.945 356.328 662.863 357.988 653.345 357.988V210.58ZM964.915 357.988C945.88 357.988 930.497 352.897 918.767 342.716C907.257 332.535 901.503 319.144 901.503 302.544C901.503 285.723 907.589 272.221 919.763 262.04C931.936 251.637 947.983 246.436 967.903 246.436C989.151 246.436 1006.64 253.961 1020.36 269.012L1021.69 267.684C1019.25 265.028 1016.49 262.261 1013.39 259.384V245.44C1013.39 234.152 1009.85 225.409 1002.76 219.212C995.68 213.015 985.609 209.916 972.551 209.916C949.311 209.916 932.711 219.101 922.751 237.472C919.209 235.701 916.221 233.377 913.787 230.5C911.573 227.401 910.467 224.303 910.467 221.204C910.467 215.228 913.455 209.584 919.431 204.272C925.407 198.739 933.264 194.312 943.003 190.992C952.963 187.672 963.365 186.012 974.21 186.012C995.237 186.012 1011.73 191.213 1023.68 201.616C1035.85 212.019 1041.94 226.405 1041.94 244.776V335.744C1041.94 343.491 1039.73 349.135 1035.3 352.676C1030.87 356.217 1023.9 357.988 1014.38 357.988V342.384C1019.03 337.515 1021.58 334.637 1022.02 333.752L1020.69 332.424C1006.3 349.467 987.712 357.988 964.915 357.988ZM969.895 335.08C983.617 335.08 994.352 332.203 1002.1 326.448C1010.07 320.693 1014.05 312.725 1014.05 302.544C1014.05 292.363 1010.18 284.284 1002.43 278.308C994.684 272.332 984.06 269.344 970.559 269.344C957.943 269.344 947.983 272.332 940.679 278.308C933.596 284.063 930.055 292.141 930.055 302.544C930.055 312.947 933.485 321.025 940.347 326.78C947.429 332.313 957.279 335.08 969.895 335.08ZM1152.89 424.388C1141.38 424.388 1130.65 422.507 1120.69 418.744C1110.73 414.981 1102.87 409.891 1097.12 403.472C1091.36 397.275 1088.49 390.524 1088.49 383.22C1088.49 377.465 1090.37 373.26 1094.13 370.604C1098.11 367.948 1103.43 366.62 1110.07 366.62C1110.51 377.023 1114.49 385.212 1122.02 391.188C1129.76 397.385 1140.06 400.484 1152.89 400.484C1181.22 400.484 1195.39 386.761 1195.39 359.316V340.06C1198.49 337.404 1200.81 334.969 1202.36 332.756L1201.37 331.096C1194.95 337.957 1186.87 343.601 1177.13 348.028C1167.61 352.455 1157.98 354.668 1148.25 354.668C1129.21 354.668 1113.61 349.467 1101.43 339.064C1089.48 328.44 1083.51 314.496 1083.51 297.232V243.78C1083.51 232.492 1086.27 222.532 1091.81 213.9C1097.56 205.047 1105.31 198.185 1115.05 193.316C1125.01 188.447 1135.96 186.012 1147.91 186.012C1169.6 186.012 1187.75 195.529 1202.36 214.564L1203.69 213.236L1197.05 204.936C1197.05 198.739 1199.15 194.091 1203.36 190.992C1207.78 187.672 1214.87 186.012 1224.61 186.012V356.328C1224.61 369.608 1221.51 381.339 1215.31 391.52C1209.33 401.923 1200.92 410.001 1190.08 415.756C1179.23 421.511 1166.84 424.388 1152.89 424.388ZM1153.56 329.436C1165.29 329.436 1175.25 326.337 1183.44 320.14C1191.63 313.721 1195.72 306.196 1195.72 297.564V243.448C1195.72 234.373 1191.63 226.737 1183.44 220.54C1175.47 214.343 1165.73 211.244 1154.22 211.244C1140.94 211.244 1130.65 214.232 1123.35 220.208C1116.04 225.963 1112.39 234.263 1112.39 245.108V295.904C1112.39 306.307 1115.93 314.496 1123.01 320.472C1130.32 326.448 1140.5 329.436 1153.56 329.436ZM1337.71 357.988C1324.21 357.988 1312.15 355.443 1301.53 350.352C1290.9 345.04 1282.6 337.847 1276.63 328.772C1270.65 319.476 1267.66 309.073 1267.66 297.564V248.428C1267.66 236.697 1270.76 226.073 1276.96 216.556C1283.38 207.039 1291.9 199.624 1302.52 194.312C1313.37 188.779 1325.1 186.012 1337.71 186.012C1350.33 186.012 1361.84 188.668 1372.24 193.98C1382.87 199.292 1391.17 206.596 1397.14 215.892C1403.34 225.188 1406.44 235.701 1406.44 247.432V268.68C1406.44 272.221 1405.11 275.209 1402.45 277.644C1399.8 280.079 1396.59 281.296 1392.83 281.296H1295.88V296.236C1295.88 307.524 1299.42 316.599 1306.51 323.46C1313.81 330.321 1324.21 333.752 1337.71 333.752C1351.22 333.752 1361.51 330.764 1368.59 324.788C1375.67 318.812 1379.21 310.733 1379.21 300.552C1385.85 300.109 1391.39 301.437 1395.81 304.536C1400.46 307.413 1402.79 311.729 1402.79 317.484C1402.79 324.567 1399.69 331.207 1393.49 337.404C1387.51 343.601 1379.55 348.581 1369.59 352.344C1359.63 356.107 1349 357.988 1337.71 357.988ZM1379.55 258.72V247.432C1379.55 236.365 1375.67 227.401 1367.93 220.54C1360.4 213.457 1350.33 209.916 1337.71 209.916C1325.1 209.916 1314.92 213.457 1307.17 220.54C1299.64 227.401 1295.88 236.365 1295.88 247.432V258.72H1379.55ZM1504.86 357.988C1493.57 357.988 1482.94 356.328 1472.98 353.008C1463.02 349.467 1454.94 344.487 1448.75 338.068C1442.77 331.649 1439.78 324.124 1439.78 315.492C1439.78 304.868 1446.2 299.113 1459.04 298.228C1461.25 310.623 1466.45 319.808 1474.64 325.784C1483.05 331.539 1493.68 334.416 1506.52 334.416C1519.35 334.416 1529.31 332.535 1536.4 328.772C1543.48 325.009 1547.02 319.255 1547.02 311.508C1547.02 305.975 1545.58 301.548 1542.7 298.228C1539.83 294.687 1535.18 291.699 1528.76 289.264C1522.56 286.608 1513.6 284.063 1501.87 281.628C1487.26 278.308 1475.64 274.767 1467.01 271.004C1458.38 267.241 1451.74 262.261 1447.09 256.064C1442.66 249.867 1440.45 241.677 1440.45 231.496C1440.45 222.864 1443.1 215.117 1448.42 208.256C1453.73 201.173 1461.03 195.751 1470.33 191.988C1479.84 188.004 1490.58 186.012 1502.53 186.012C1513.6 186.012 1524 187.561 1533.74 190.66C1543.7 193.759 1551.67 198.185 1557.64 203.94C1563.84 209.695 1566.94 216.335 1566.94 223.86C1566.94 228.951 1564.95 233.045 1560.96 236.144C1556.98 239.021 1551.45 240.681 1544.36 241.124C1543.7 231.385 1539.72 223.749 1532.41 218.216C1525.33 212.461 1515.37 209.584 1502.53 209.584C1491.91 209.584 1483.5 211.576 1477.3 215.56C1471.1 219.544 1468 224.856 1468 231.496C1468 238.579 1470.88 243.891 1476.64 247.432C1482.61 250.752 1492.68 253.961 1506.85 257.06C1530.09 261.708 1547.13 268.127 1557.98 276.316C1569.04 284.284 1574.58 295.683 1574.58 310.512C1574.58 325.563 1568.49 337.293 1556.32 345.704C1544.14 353.893 1526.99 357.988 1504.86 357.988ZM1718.89 355C1711.8 355 1705.72 352.455 1700.63 347.364C1695.76 342.273 1693.32 336.187 1693.32 329.104V154.804C1693.32 142.852 1697.31 133.999 1705.27 128.244C1713.24 122.489 1725.53 119.612 1742.13 119.612V312.836H1827.78C1838.85 312.836 1847.26 316.488 1853.01 323.792C1858.99 330.875 1861.98 341.277 1861.98 355H1718.89ZM1947.96 357.988C1934.23 357.988 1921.51 355.221 1909.78 349.688C1898.27 344.155 1889.08 336.629 1882.22 327.112C1875.36 317.595 1871.93 306.971 1871.93 295.24V252.744C1871.93 240.349 1875.36 229.061 1882.22 218.88C1889.3 208.477 1898.71 200.399 1910.44 194.644C1922.17 188.889 1934.79 186.012 1948.29 186.012C1961.57 186.012 1973.74 188.779 1984.81 194.312C1996.1 199.624 2004.95 207.26 2011.37 217.22C2017.79 226.959 2021 238.025 2021 250.42V268.348C2021 273.66 2019 278.197 2015.02 281.96C2011.04 285.501 2005.95 287.272 1999.75 287.272H1916.08V291.92C1916.08 300.773 1918.74 308.077 1924.05 313.832C1929.59 319.365 1937.66 322.132 1948.29 322.132C1958.69 322.132 1966.33 319.919 1971.2 315.492C1976.07 310.844 1978.5 305.089 1978.5 298.228C1982.93 297.785 1986.25 297.564 1988.46 297.564C1997.53 297.564 2004.51 299.445 2009.38 303.208C2014.25 306.971 2016.68 312.504 2016.68 319.808C2016.68 325.784 2013.69 331.76 2007.72 337.736C2001.74 343.712 1993.44 348.581 1982.82 352.344C1972.41 356.107 1960.79 357.988 1947.96 357.988ZM1979.83 255.068V250.42C1979.83 241.567 1976.84 234.595 1970.86 229.504C1965.11 224.192 1957.47 221.536 1947.96 221.536C1938.44 221.536 1930.69 224.192 1924.72 229.504C1918.96 234.595 1916.08 241.567 1916.08 250.42V255.068H1979.83Z" fill="#003849"/>
<path fill-rule="evenodd" clip-rule="evenodd" d="M344.748 173.795L335.206 231.278C338.407 230.36 341.643 228.937 344.811 227.849C353.248 224.925 364.111 220.409 372.861 217.122C379.054 214.793 385.48 212.323 391.606 209.931C394.128 208.951 409.337 203.318 410.312 202.667C409.388 200.519 400.814 192.013 398.814 190.534C397.726 189.735 396.729 188.789 395.533 187.979C394.332 187.163 393.266 186.386 391.94 185.491C385.067 180.782 375.15 176.759 366.656 175.036C360.677 173.823 350.908 172.764 344.748 173.795ZM284.654 215.026C285.577 216.193 295.845 224.534 297.953 226.45C303.303 231.317 311.389 237.517 316.914 242.549C319.957 245.314 324.518 248.844 327.811 251.717C327.969 251.474 327.862 251.757 328.02 251.236L340.748 174.22C323.487 176.657 311.083 184.035 300.061 194.053C297.908 196.02 296.367 198.009 294.219 200.36C293.358 201.307 292.281 202.678 291.556 203.772C289.431 206.934 288.887 207.483 286.779 211.144C286.099 212.311 285.385 213.972 284.671 215.037L284.654 215.026ZM358.943 226.552C359.516 226.971 360.009 227.521 360.643 228.002C361.335 228.541 361.816 228.966 362.593 229.555C363.307 230.105 363.839 230.405 364.616 231.051L372.339 237.126C373.031 237.647 373.586 238.197 374.255 238.701C375.66 239.783 376.606 240.605 378.04 241.699L408.889 265.986C410.21 266.944 411.558 268.06 412.856 269.04L420.466 275.03C422.444 271.137 424.359 262.83 425 257.832C427.04 242.112 424.337 226.563 416.953 212.816C415.593 210.294 414.165 208.22 412.856 205.942L358.943 226.552ZM361.516 321.321C366.701 321.281 376.935 317.717 381.179 315.875C387.435 313.155 395.714 308.027 400.31 303.698C401.534 302.542 402.492 301.765 403.591 300.677C404.73 299.544 405.461 298.626 406.674 297.447C407.643 296.501 408.527 295.181 409.411 294.098C411.921 291.033 417.933 282.397 418.914 278.589L375.02 244.186C374.255 245.728 373.603 251.695 373.212 253.888L364.871 302.105C363.771 308.401 362.848 315.184 361.527 321.321H361.516ZM367.177 265.861L292.632 293.118C294.91 296.172 298.22 299.924 301.081 302.349C302.05 303.159 303.104 304.389 304.164 305.103C306.21 306.508 308.221 308.39 311.038 310.146C319.073 315.195 326.179 318.272 335.993 320.471C340.459 321.463 353.197 322.93 357.6 321.718L367.188 265.861H367.177ZM283.033 218.856C282.036 220.483 280.63 225.067 280.013 227.266C274.618 246.068 276.896 265.776 285.963 282.867L290.111 289.831C292.865 289.1 300.345 286.108 303.762 284.918C308.284 283.343 312.636 281.677 317.123 280.056C321.572 278.453 326.031 276.838 330.468 275.177C331.681 274.73 342.856 271.018 343.757 270.106L283.033 218.856Z" fill="#291B25"/>
<path fill-rule="evenodd" clip-rule="evenodd" d="M108.936 162.224H56.236C49.436 162.224 43.8713 167.794 43.8713 174.6C43.8713 181.4 49.436 186.97 56.236 186.97H108.936C115.736 186.97 121.301 181.4 121.301 174.6C121.301 167.794 115.736 162.224 108.936 162.224Z" fill="#291B25"/>
<path fill-rule="evenodd" clip-rule="evenodd" d="M356.377 337.499C354.716 337.596 353.039 337.635 351.356 337.635C351.197 337.635 351.027 337.635 350.869 337.635C350.716 337.635 350.557 337.635 350.387 337.635C301.059 337.635 261.052 297.606 261.052 248.249C261.052 198.893 301.059 158.863 350.387 158.863C350.546 158.863 350.699 158.863 350.869 158.863C351.027 158.863 351.186 158.863 351.356 158.863C353.039 158.863 354.716 158.914 356.377 158.999C403.376 161.606 440.691 200.564 440.691 248.249C440.691 295.917 403.376 334.893 356.377 337.499ZM425.862 112.119H353.164C352.399 112.079 351.645 112.068 350.886 112.068C350.121 112.057 349.367 112.068 348.602 112.119H220.734C213.934 112.119 208.369 117.684 208.369 124.489C208.369 131.295 213.934 136.86 220.734 136.86H271.416C271.524 136.86 271.626 136.871 271.734 136.871H271.745C271.949 136.888 272.159 136.899 272.363 136.922H272.374C272.47 136.933 272.584 136.945 272.68 136.956C272.98 136.996 273.286 137.041 273.587 137.103H273.598L273.893 137.166L274.182 137.239L274.471 137.324L274.754 137.409H274.777L275.054 137.494H275.077L275.258 137.551C275.491 137.636 275.723 137.721 275.95 137.817C280.375 139.71 283.492 144.113 283.492 149.207C283.492 156.013 277.927 161.583 271.127 161.583H159.307C152.507 161.583 146.942 167.148 146.942 173.954C146.942 180.759 152.507 186.324 159.307 186.324H207.423L207.649 186.341H207.746L207.967 186.352H208.04L208.318 186.375H208.341L208.607 186.398L208.692 186.409L208.902 186.437L209.242 186.483H209.264L209.542 186.534L209.616 186.545L209.82 186.596L209.905 186.619L210.126 186.664L210.171 186.681L210.437 186.749L210.5 186.766L210.704 186.823L210.789 186.851L210.976 186.908L211.061 186.936L211.31 187.015L211.338 187.032L211.565 187.117L211.639 187.14L211.831 187.214L211.905 187.248L212.149 187.355H212.16L212.404 187.48L212.477 187.514L212.659 187.599L212.732 187.639L212.925 187.746L212.959 187.769L213.203 187.905L213.254 187.928L213.435 188.035L213.509 188.075L213.69 188.183L213.735 188.217L213.968 188.364L214.002 188.387L214.183 188.523L214.257 188.568L214.415 188.693L214.478 188.738L214.693 188.908L214.903 189.078L214.959 189.129L215.118 189.259L215.18 189.31L215.362 189.469L215.384 189.492L215.577 189.673L215.979 190.075L216.03 190.121L216.212 190.319L216.246 190.353L216.393 190.512L216.455 190.574L216.586 190.733L216.62 190.778L216.79 190.999L216.807 191.01L216.96 191.203L217.011 191.277L217.118 191.424L217.169 191.492L217.311 191.702L217.328 191.724L217.481 191.957L217.521 192.002L217.628 192.183L217.662 192.257L217.776 192.45L217.798 192.489L217.934 192.733L217.968 192.79L218.065 192.977L218.099 193.045L218.201 193.226L218.223 193.288L218.342 193.532L218.354 193.566L218.45 193.787L218.49 193.861L218.563 194.053L218.586 194.127L218.597 194.172C218.694 194.405 218.767 194.648 218.852 194.892C219.226 196.076 219.436 197.329 219.436 198.638C219.436 205.443 213.871 211.014 207.071 211.014H89.9753C83.1753 211.014 77.6106 216.578 77.6106 223.384C77.6106 230.19 83.1753 235.754 89.9753 235.754H180.931L180.92 235.794C181.237 235.817 181.537 235.851 181.843 235.89C187.793 236.774 192.389 241.942 192.389 248.13C192.389 254.313 187.793 259.481 181.843 260.365C181.537 260.416 181.237 260.45 180.92 260.467L180.931 260.501H115.362C108.556 260.501 102.997 266.071 102.997 272.871C102.997 279.677 108.556 285.247 115.362 285.247H207.071C213.871 285.247 219.436 290.812 219.436 297.617C219.436 298.926 219.226 300.179 218.852 301.369C218.779 301.607 218.694 301.839 218.597 302.083L218.586 302.117L218.563 302.19L218.49 302.372L218.45 302.457L218.371 302.666L218.354 302.7L218.246 302.944L218.212 303.018L218.127 303.199L218.087 303.284L218.002 303.454L217.968 303.528L217.832 303.754L217.81 303.805L217.702 303.987L217.651 304.06L217.543 304.23L217.509 304.287L217.362 304.519L217.339 304.559L217.203 304.752L217.141 304.825L217.033 304.967L216.988 305.041L216.841 305.233L216.818 305.262L216.648 305.466L216.597 305.517L216.467 305.67L216.404 305.732L216.268 305.891L216.223 305.942L216.042 306.134L215.991 306.18L215.849 306.327L215.787 306.389L215.639 306.531L215.594 306.582L215.396 306.763L215.362 306.786L215.192 306.933L215.129 306.996L214.988 307.115L214.914 307.177L214.721 307.336L214.704 307.347L214.5 307.506L214.438 307.551L214.285 307.676L214.211 307.721L214.03 307.857L213.99 307.88L213.764 308.027L213.713 308.061L213.531 308.169L213.458 308.208L213.276 308.316L213.225 308.339L212.948 308.497L212.755 308.605L212.681 308.645L212.5 308.73L212.426 308.764L212.183 308.888L212.171 308.9L211.933 309.007L211.86 309.047L211.661 309.115L211.593 309.143L211.361 309.228L211.338 309.24L211.083 309.325L210.998 309.347L210.817 309.41L210.732 309.432L210.522 309.495L210.466 309.506L210.199 309.58L210.148 309.591L209.933 309.636L209.848 309.665L209.797 309.676C209.117 309.823 208.454 309.92 207.797 309.954H207.723L207.564 309.965H159.381C152.575 309.965 147.01 315.535 147.01 322.341C147.01 329.141 152.575 334.711 159.381 334.711H271.201C278.001 334.711 283.566 340.276 283.566 347.082C283.566 352.176 280.449 356.579 276.023 358.472C275.797 358.568 275.564 358.67 275.332 358.738L276.046 359.458H220.819C214.019 359.458 208.454 365.022 208.454 371.828C208.454 378.634 214.019 384.198 220.819 384.198H348.698H348.642C349.418 384.238 350.194 384.261 350.971 384.249C351.741 384.261 352.518 384.249 353.294 384.198H353.237H445.366C486.608 384.198 520.348 350.442 520.348 309.177V186.919C520.348 145.654 486.608 111.898 445.366 111.898H425.935L425.862 112.119Z" fill="#ED5B2D"/>
<path fill-rule="evenodd" clip-rule="evenodd" d="M79.7811 260.563H53.4255C46.6255 260.563 41.0608 266.128 41.0608 272.933C41.0608 279.739 46.6255 285.304 53.4255 285.304H79.7811C86.5811 285.304 92.1458 279.739 92.1458 272.933C92.1458 266.128 86.5811 260.563 79.7811 260.563Z" fill="#291B25"/>
<path fill-rule="evenodd" clip-rule="evenodd" d="M181.815 359.361H83.997C77.197 359.361 71.6323 364.926 71.6323 371.732C71.6323 378.537 77.197 384.102 83.997 384.102H181.815C188.621 384.102 194.185 378.537 194.185 371.732C194.185 364.926 188.621 359.361 181.815 359.361Z" fill="#291B25"/>
<path fill-rule="evenodd" clip-rule="evenodd" d="M179.004 111.949H164.407C157.607 111.949 152.042 117.514 152.042 124.319C152.042 131.125 157.607 136.69 164.407 136.69H179.004C185.804 136.69 191.369 131.125 191.369 124.319C191.369 117.514 185.804 111.949 179.004 111.949Z" fill="#291B25"/>
<path fill-rule="evenodd" clip-rule="evenodd" d="M109.882 310.243H95.2851C88.4851 310.243 82.9204 315.813 82.9204 322.619C82.9204 329.424 88.4851 334.989 95.2851 334.989H109.882C116.682 334.989 122.247 329.424 122.247 322.619C122.247 315.813 116.682 310.243 109.882 310.243Z" fill="#291B25"/>
<path fill-rule="evenodd" clip-rule="evenodd" d="M51.1077 211.218H36.5104C29.7104 211.218 24.1458 216.782 24.1458 223.588C24.1458 230.394 29.7104 235.964 36.5104 235.964H51.1077C57.9077 235.964 63.4724 230.394 63.4724 223.588C63.4724 216.782 57.9077 211.218 51.1077 211.218Z" fill="#291B25"/>
</g>
<defs>
<clipPath id="clip0_305_2">
<rect width="2099" height="496" fill="white"/>
</clipPath>
</defs>
</svg>
